<svg xmlns="http://www.w3.org/2000/svg" xmlns:xlink="http://www.w3.org/1999/xlink" width="25" height="18.75" viewBox="0 0 25 18.75"><defs><style>.a{fill:none;}.b{clip-path:url(#a);}.c{fill:#bc1905;}</style><clipPath id="a"><rect class="a" width="25" height="18.75" transform="translate(0)"/></clipPath></defs><g transform="translate(26.667 20)"><g class="b" transform="translate(-26.667 -20)"><path class="c" d="M23.744,0H1.583A1.583,1.583,0,0,0,0,1.583V17.412a1.583,1.583,0,0,0,1.583,1.583H23.744a1.583,1.583,0,0,0,1.583-1.583V1.583A1.583,1.583,0,0,0,23.744,0M22.161,3.166V4.274l-9.5,5.7-9.5-5.7V3.166ZM3.166,15.829V7.123l9.5,5.54,9.5-5.54v8.706Z" transform="translate(-0.163 -0.122)"/></g></g></svg>