<svg xmlns="http://www.w3.org/2000/svg" xmlns:xlink="http://www.w3.org/1999/xlink" width="25" height="25" viewBox="0 0 25 25"><defs><style>.a{fill:none;}.b{clip-path:url(#a);}.c{fill:#bc1905;}</style><clipPath id="a"><rect class="a" width="25" height="25"/></clipPath></defs><g transform="translate(20 20)"><g class="b" transform="translate(-20 -20)"><path class="c" d="M24.531,7.652l-2.5-2.5L19.844,2.964l-2.5-2.5A2.031,2.031,0,0,0,15,.308L8.125,4.839A1.875,1.875,0,0,0,7.5,7.027l1.875,3.437v.313L.781,19.527,0,25H4.688V23.433H7.813V20.308h3.125V17.183h3.125V15.464l.469.312L17.969,17.5a1.875,1.875,0,0,0,2.187-.625l4.531-6.719a2.031,2.031,0,0,0-.312-2.344ZM3.75,20.933,2.656,19.839l7.5-7.656,1.094,1.094ZM22.5,10.464l-1.094,1.094a.781.781,0,0,1-1.094,0L13.594,4.839a.781.781,0,0,1,0-1.094l1.094-1.094a.781.781,0,0,1,1.094,0l6.563,6.563a.781.781,0,0,1,0,1.094" transform="translate(0 0.005)"/></g></g></svg>