<svg xmlns="http://www.w3.org/2000/svg" width="126.254" height="124.799" viewBox="0 0 126.254 124.799"><defs><style>.a{fill:#aa0c1b;}</style></defs><g transform="translate(63.127 62.4)"><path class="a" d="M115.7,74.734,103.416,62.454,115.7,50.173v9.372h10.557A63.235,63.235,0,0,0,0,59.545H10.557V50.173L22.838,62.454,10.557,74.734v-9.48H0a63.234,63.234,0,0,0,126.254,0H115.7ZM36.3,87.554h-4.74V44.464H24.023l2.909-4.74H36.3Zm1.508,0L56.125,67.84a58.925,58.925,0,0,0,7.218-8.833,11.85,11.85,0,0,0,1.724-6.033,9.372,9.372,0,0,0-3.016-6.894,10.126,10.126,0,0,0-7.325-2.909,10.342,10.342,0,0,0-7.648,3.016,13.142,13.142,0,0,0-3.447,8.618H39a16.374,16.374,0,0,1,4.74-11.634,15.189,15.189,0,0,1,11.2-4.632A14.22,14.22,0,0,1,69.59,52.866a15.62,15.62,0,0,1-1.939,7.648A54.832,54.832,0,0,1,60.11,70.1L48.261,82.921H72.283a15.512,15.512,0,0,0,2.262,2.37,15.836,15.836,0,0,0,3.339,2.262ZM100.076,79.8a14.866,14.866,0,0,1-5.817,5.709,17.021,17.021,0,0,1-8.295,2.047A15.189,15.189,0,0,1,75.623,84q-4.094-3.555-5.386-10.449h4.632a13.573,13.573,0,0,0,3.555,6.679,10.88,10.88,0,0,0,7.541,2.585,11.311,11.311,0,0,0,8.295-3.124,9.911,9.911,0,0,0,3.232-7.218,9.48,9.48,0,0,0-1.616-5.279,9.911,9.911,0,0,0-4.2-3.663,23.377,23.377,0,0,0-8.187-1.508V57.606a15.081,15.081,0,0,0,5.925-1.185,8.726,8.726,0,0,0,3.878-2.909,6.787,6.787,0,0,0,1.185-3.878A7.11,7.11,0,0,0,92,44.248a8.941,8.941,0,0,0-6.248-2.262,8.4,8.4,0,0,0-5.279,1.724,13.142,13.142,0,0,0-3.77,5.925H71.852a16.051,16.051,0,0,1,5.063-9.049,13.358,13.358,0,0,1,8.941-3.232,14.65,14.65,0,0,1,7,1.724,12.6,12.6,0,0,1,4.955,4.632,11.419,11.419,0,0,1,1.724,6.033q0,6.14-6.14,9.8a13.9,13.9,0,0,1,5.709,3.986,13.035,13.035,0,0,1,3.124,8.51,15.189,15.189,0,0,1-2.154,7.756Z" transform="translate(-63.127 -62.4)"/></g></svg>