<?xml version="1.0" standalone="no"?>
<!DOCTYPE svg PUBLIC "-//W3C//DTD SVG 20010904//EN"
 "http://www.w3.org/TR/2001/REC-SVG-20010904/DTD/svg10.dtd">
<svg version="1.0" xmlns="http://www.w3.org/2000/svg"
 width="237.000000pt" height="237.000000pt" viewBox="0 0 237.000000 237.000000"
 preserveAspectRatio="xMidYMid meet">
<metadata>
Created by potrace 1.11, written by Peter Selinger 2001-2013
</metadata>
<g transform="translate(0.000000,237.000000) scale(0.100000,-0.100000)"
fill="#000000" stroke="none">
<path d="M2194 1505 c-97 -50 -192 -144 -283 -278 l-33 -49 -42 39 c-87 84
-116 96 -169 72 -14 -6 -30 -22 -35 -34 -21 -46 -4 -76 107 -187 91 -91 113
-108 139 -108 44 0 90 44 173 166 81 118 160 197 242 237 44 23 58 36 67 63
14 42 7 67 -27 94 -36 28 -61 25 -139 -15z"/>
<path d="M580 1458 c-71 -20 -125 -84 -134 -160 -5 -40 6 -48 67 -48 45 0 49
2 62 34 20 47 68 62 99 30 31 -30 17 -58 -108 -216 -113 -144 -124 -161 -124
-200 -1 -24 2 -49 7 -56 6 -9 51 -12 187 -10 l179 3 0 60 0 60 -94 5 -93 5 76
95 c88 110 116 162 116 213 0 42 -22 102 -48 130 -41 46 -131 71 -192 55z"/>
<path d="M1103 1455 c-61 -26 -113 -96 -113 -152 l0 -33 58 0 c53 0 60 2 70
25 18 38 55 52 87 31 51 -33 22 -106 -43 -106 -43 0 -54 -27 -43 -110 0 -5 16
-10 35 -10 76 0 114 -76 60 -119 -36 -29 -51 -26 -88 12 -26 28 -39 34 -78 36
-65 3 -75 -18 -44 -85 38 -81 94 -114 182 -109 86 5 148 52 174 131 17 50 8
129 -19 165 -21 28 -21 32 -7 47 19 22 34 88 29 127 -8 59 -45 108 -102 138
-60 30 -109 34 -158 12z"/>
<path d="M48 1424 c-48 -36 -48 -36 -48 -95 0 -55 2 -59 23 -59 13 0 28 5 35
12 6 6 15 9 18 5 4 -3 7 -100 6 -214 0 -114 2 -216 5 -225 3 -14 15 -18 58
-18 31 0 57 5 61 12 10 16 11 573 2 599 -6 16 -17 19 -60 19 -45 -1 -60 -6
-100 -36z"/>
<path d="M1498 1448 c-2 -7 -4 -148 -3 -313 l0 -300 316 -3 316 -2 0 180 c0
99 -3 180 -6 179 -3 0 -25 -29 -48 -64 -39 -59 -43 -70 -43 -129 0 -42 -4 -65
-12 -68 -10 -3 -396 -2 -419 1 -7 1 -7 431 1 432 3 1 91 2 196 3 l191 1 48 48
49 47 -291 0 c-224 0 -292 -3 -295 -12z"/>
<path d="M311 1156 c-38 -46 25 -111 69 -71 25 23 26 47 2 68 -23 21 -56 22
-71 3z"/>
<path d="M876 1154 c-9 -8 -16 -24 -16 -34 0 -10 7 -26 16 -34 8 -9 24 -16 34
-16 22 0 50 26 50 46 0 48 -51 71 -84 38z"/>
</g>
</svg>
