<svg xmlns="http://www.w3.org/2000/svg" viewBox="0 0 108.06 34"><title>123.ch</title><path d="M17,0A17,17,0,1,0,34,17,17,17,0,0,0,17,0Zm2.66,27h-3V14h-5V11.77c2.49.05,4.78-.87,5.16-3.77h2.84Z" style="fill:#fff"/><path d="M54,0A17,17,0,1,0,71,17,17,17,0,0,0,54,0Zm6.63,26H47.54c0-4.13,2.55-5.9,5.64-8,1.58-1.07,3.73-2.17,3.75-4.36a2.58,2.58,0,0,0-2.68-2.76c-2.14,0-2.83,2.22-2.83,4.11H47.77c-.13-4.14,2.23-7.33,6.58-7.33,3.31,0,6.21,2.12,6.21,5.67,0,2.72-1.45,4.22-3.24,5.49s-3.91,2.3-5.23,4.17h8.57Z" style="fill:#fff"/><path d="M91.06,0a17,17,0,1,0,17,17A17,17,0,0,0,91.06,0Zm.22,27.73c-5.06,0-8.48-2.85-8.39-7.73h4.35c.1,2.3,1.32,4.18,4,4.18a3.4,3.4,0,0,0,3.68-3.33c0-3.21-3-3.15-5.23-3.15v-3c2,.15,4.81-.21,4.81-2.64a2.93,2.93,0,0,0-3.19-2.82c-2.29,0-3.52,1.61-3.48,3.79H83.44c.16-4.33,3.16-7.33,7.81-7.33,3.61,0,7.58,2.09,7.58,5.88a4.24,4.24,0,0,1-3.16,4.33v.06a4.81,4.81,0,0,1,4,4.82C99.66,25.21,95.69,27.73,91.28,27.73Z" style="fill:#fff"/></svg>